# xmcd CD database file
#
# Track frame offsets:
#	183
#	33333
#	66673
#	100548
#	136238
#	144905
#	182395
#	221878
#
# Disc length: 3571 seconds
#
# Revision: 0
# Processed by: cddbd v1.5.2PL0 Copyright (c) Steve Scherf et al.
# Submitted via: CDex 1.51
#
DISCID=6f0df108
DTITLE=Martin Fuss - special
DYEAR=1990
DGENRE=Jazz
TTITLE0=01-Change The Rhythm
TTITLE1=02-Almost Mambo
TTITLE2=03-For Dominik
TTITLE3=04-Dominant Blue
TTITLE4=05-Intro - Latin Armando
TTITLE5=06-Latin Armando
TTITLE6=07-Mellow Song
TTITLE7=08-Is It Or Not?
EXTD=YEAR: 1990
EXTT0=
EXTT1=
EXTT2=
EXTT3=
EXTT4=
EXTT5=
EXTT6=
EXTT7=
PLAYORDER=
